<svg width="110" height="110" viewBox="0 0 110 110" fill="none" xmlns="http://www.w3.org/2000/svg">
<path d="M54.97 5.2808L63.6784 0L70.3227 7.7065L80.2365 5.37873L84.1763 14.7651L94.3236 15.6164L95.1673 25.7637L104.554 29.7035L102.226 39.6097L109.94 46.2616L104.659 54.97L109.94 63.6784L102.226 70.3227L104.554 80.2365L95.1673 84.1763L94.3236 94.3236L84.1763 95.1673L80.2365 104.554L70.3227 102.226L63.6784 109.94L54.97 104.659L46.2616 109.94L39.6097 102.226L29.7035 104.554L25.7637 95.1673L15.6164 94.3236L14.7651 84.1763L5.37873 80.2365L7.7065 70.3227L0 63.6784L5.2808 54.97L0 46.2616L7.7065 39.6097L5.37873 29.7035L14.7651 25.7637L15.6164 15.6164L25.7637 14.7651L29.7035 5.37873L39.6097 7.7065L46.2616 0L54.97 5.2808Z" fill="#D5E0D0"/>
<path d="M54.9701 7.76435L63.2432 2.7475L69.5555 10.0688L78.9737 7.85739L82.7167 16.7747L92.3568 17.5834L93.1583 27.2235L102.076 30.9664L99.8641 40.3775L107.193 46.6969L102.176 54.97L107.193 63.2432L99.8641 69.5554L102.076 78.9736L93.1583 82.7166L92.3568 92.3567L82.7167 93.1582L78.9737 102.076L69.5555 99.8641L63.2432 107.193L54.9701 102.176L46.6969 107.193L40.3776 99.8641L30.9665 102.076L27.2235 93.1582L17.5834 92.3567L16.7747 82.7166L7.85745 78.9736L10.0689 69.5554L2.74756 63.2432L7.76441 54.97L2.74756 46.6969L10.0689 40.3775L7.85745 30.9664L16.7747 27.2235L17.5834 17.5834L27.2235 16.7747L30.9665 7.85739L40.3776 10.0688L46.6969 2.7475L54.9701 7.76435Z" fill="#5EB938"/>
<path d="M32.2 43.75C34.9333 45.0167 36.3 47.3167 36.3 50.65V53.9C36.3 56.5667 35.55 58.6667 34.05 60.2C32.55 61.7333 30.4833 62.5 27.85 62.5C25.2167 62.5 23.15 61.7333 21.65 60.2C20.15 58.6667 19.4 56.5667 19.4 53.9V52.85L24.5 52.35V53.5C24.5 56.1667 25.5833 57.5 27.75 57.5C28.7833 57.5 29.5833 57.2 30.15 56.6C30.7167 56 31 55.1333 31 54V50.35C31 48.95 30.6833 47.9333 30.05 47.3C29.4167 46.6667 28.4 46.35 27 46.35H24.9V41.35H26.65C28.05 41.35 29.0667 41.0333 29.7 40.4C30.3333 39.7667 30.65 38.75 30.65 37.35V34.65C30.65 33.6167 30.3833 32.8333 29.85 32.3C29.35 31.7667 28.6167 31.5 27.65 31.5C25.65 31.5 24.65 32.7167 24.65 35.15V35.95H19.55V34.75C19.55 32.2167 20.2667 30.2167 21.7 28.75C23.1667 27.25 25.1833 26.5 27.75 26.5C30.3167 26.5 32.3167 27.25 33.75 28.75C35.2167 30.2167 35.95 32.2167 35.95 34.75V37.05C35.95 38.6167 35.6333 39.9667 35 41.1C34.3667 42.2333 33.4333 43.1167 32.2 43.75ZM49.0648 62.5C46.5315 62.5 44.4815 61.7333 42.9148 60.2C41.3482 58.6333 40.5648 56.5833 40.5648 54.05V34.95C40.5648 32.4167 41.3482 30.3833 42.9148 28.85C44.4815 27.2833 46.5315 26.5 49.0648 26.5C51.5982 26.5 53.6482 27.2833 55.2148 28.85C56.7815 30.3833 57.5648 32.4167 57.5648 34.95V54.05C57.5648 56.5833 56.7815 58.6333 55.2148 60.2C53.6482 61.7333 51.5982 62.5 49.0648 62.5ZM49.0648 57.5C50.0648 57.5 50.8482 57.2 51.4148 56.6C51.9815 56 52.2648 55.15 52.2648 54.05V34.95C52.2648 33.85 51.9815 33 51.4148 32.4C50.8482 31.8 50.0648 31.5 49.0648 31.5C48.0648 31.5 47.2815 31.8 46.7148 32.4C46.1482 33 45.8648 33.85 45.8648 34.95V54.05C45.8648 55.15 46.1482 56 46.7148 56.6C47.2815 57.2 48.0648 57.5 49.0648 57.5ZM67.4945 46.45C65.7612 46.45 64.4445 45.9667 63.5445 45C62.6445 44.0333 62.1945 42.65 62.1945 40.85V32.1C62.1945 30.3 62.6445 28.9167 63.5445 27.95C64.4445 26.9833 65.7612 26.5 67.4945 26.5C69.2279 26.5 70.5445 26.9833 71.4445 27.95C72.3445 28.9167 72.7945 30.3 72.7945 32.1V40.85C72.7945 42.65 72.3445 44.0333 71.4445 45C70.5445 45.9667 69.2279 46.45 67.4945 46.45ZM80.9445 27H84.4445L69.8945 62H66.3945L80.9445 27ZM67.4945 43.3C68.6945 43.3 69.2945 42.5667 69.2945 41.1V31.85C69.2945 30.3833 68.6945 29.65 67.4945 29.65C66.2945 29.65 65.6945 30.3833 65.6945 31.85V41.1C65.6945 42.5667 66.2945 43.3 67.4945 43.3ZM83.3445 62.5C81.6112 62.5 80.2945 62.0167 79.3945 61.05C78.4945 60.0833 78.0445 58.7 78.0445 56.9V48.15C78.0445 46.35 78.4945 44.9667 79.3945 44C80.2945 43.0333 81.6112 42.55 83.3445 42.55C85.0779 42.55 86.3945 43.0333 87.2945 44C88.1945 44.9667 88.6445 46.35 88.6445 48.15V56.9C88.6445 58.7 88.1945 60.0833 87.2945 61.05C86.3945 62.0167 85.0779 62.5 83.3445 62.5ZM83.3445 59.35C84.5445 59.35 85.1445 58.6167 85.1445 57.15V47.9C85.1445 46.4333 84.5445 45.7 83.3445 45.7C82.1445 45.7 81.5445 46.4333 81.5445 47.9V57.15C81.5445 58.6167 82.1445 59.35 83.3445 59.35Z" fill="white"/>
<path d="M39.57 90.3C38.05 90.3 36.82 89.84 35.88 88.92C34.94 87.98 34.47 86.75 34.47 85.23V73.77C34.47 72.25 34.94 71.03 35.88 70.11C36.82 69.17 38.05 68.7 39.57 68.7C41.09 68.7 42.32 69.17 43.26 70.11C44.2 71.03 44.67 72.25 44.67 73.77V85.23C44.67 86.75 44.2 87.98 43.26 88.92C42.32 89.84 41.09 90.3 39.57 90.3ZM39.57 87.3C40.17 87.3 40.64 87.12 40.98 86.76C41.32 86.4 41.49 85.89 41.49 85.23V73.77C41.49 73.11 41.32 72.6 40.98 72.24C40.64 71.88 40.17 71.7 39.57 71.7C38.97 71.7 38.5 71.88 38.16 72.24C37.82 72.6 37.65 73.11 37.65 73.77V85.23C37.65 85.89 37.82 86.4 38.16 86.76C38.5 87.12 38.97 87.3 39.57 87.3ZM47.8943 69H56.7743V72H51.0743V78.15H55.5743V81.15H51.0743V90H47.8943V69ZM59.2322 69H68.1122V72H62.4122V78.15H66.9122V81.15H62.4122V90H59.2322V69ZM73.8101 69V75.63L73.2701 84.6H71.1701L70.6301 75.63V69H73.8101ZM73.8101 86.82V90H70.6301V86.82H73.8101Z" fill="white"/>
</svg>
