<svg width="97" height="119" viewBox="0 0 97 119" fill="none" xmlns="http://www.w3.org/2000/svg">
<path d="M49.7921 17.0362C49.0267 17.3123 47.9815 17.3123 47.2161 17.0362L0 0V96.6432L47.7181 119L97 96.6432V0L49.7921 17.0362Z" fill="#E6E6E6"/>
<path d="M49.7388 19.1773C49.005 19.4395 48.0029 19.4395 47.269 19.1773L2 3V94.7704L47.7504 116L95 94.7704V3L49.7388 19.1773Z" fill="#5EB938"/>
<path d="M31.7 58.7H28.85V66H23.55V58.7H13.2V53.95L22.55 31H28.85V53.7H31.7V58.7ZM23.55 53.7V39.95L18.2 53.7H23.55ZM43.6508 66.5C41.1174 66.5 39.0674 65.7333 37.5008 64.2C35.9341 62.6333 35.1508 60.5833 35.1508 58.05V38.95C35.1508 36.4167 35.9341 34.3833 37.5008 32.85C39.0674 31.2833 41.1174 30.5 43.6508 30.5C46.1841 30.5 48.2341 31.2833 49.8008 32.85C51.3674 34.3833 52.1508 36.4167 52.1508 38.95V58.05C52.1508 60.5833 51.3674 62.6333 49.8008 64.2C48.2341 65.7333 46.1841 66.5 43.6508 66.5ZM43.6508 61.5C44.6508 61.5 45.4341 61.2 46.0008 60.6C46.5674 60 46.8508 59.15 46.8508 58.05V38.95C46.8508 37.85 46.5674 37 46.0008 36.4C45.4341 35.8 44.6508 35.5 43.6508 35.5C42.6508 35.5 41.8674 35.8 41.3008 36.4C40.7341 37 40.4508 37.85 40.4508 38.95V58.05C40.4508 59.15 40.7341 60 41.3008 60.6C41.8674 61.2 42.6508 61.5 43.6508 61.5ZM62.0805 50.45C60.3471 50.45 59.0305 49.9667 58.1305 49C57.2305 48.0333 56.7805 46.65 56.7805 44.85V36.1C56.7805 34.3 57.2305 32.9167 58.1305 31.95C59.0305 30.9833 60.3471 30.5 62.0805 30.5C63.8138 30.5 65.1305 30.9833 66.0305 31.95C66.9305 32.9167 67.3805 34.3 67.3805 36.1V44.85C67.3805 46.65 66.9305 48.0333 66.0305 49C65.1305 49.9667 63.8138 50.45 62.0805 50.45ZM75.5305 31H79.0305L64.4805 66H60.9805L75.5305 31ZM62.0805 47.3C63.2805 47.3 63.8805 46.5667 63.8805 45.1V35.85C63.8805 34.3833 63.2805 33.65 62.0805 33.65C60.8805 33.65 60.2805 34.3833 60.2805 35.85V45.1C60.2805 46.5667 60.8805 47.3 62.0805 47.3ZM77.9305 66.5C76.1971 66.5 74.8805 66.0167 73.9805 65.05C73.0805 64.0833 72.6305 62.7 72.6305 60.9V52.15C72.6305 50.35 73.0805 48.9667 73.9805 48C74.8805 47.0333 76.1971 46.55 77.9305 46.55C79.6638 46.55 80.9805 47.0333 81.8805 48C82.7805 48.9667 83.2305 50.35 83.2305 52.15V60.9C83.2305 62.7 82.7805 64.0833 81.8805 65.05C80.9805 66.0167 79.6638 66.5 77.9305 66.5ZM77.9305 63.35C79.1305 63.35 79.7305 62.6167 79.7305 61.15V51.9C79.7305 50.4333 79.1305 49.7 77.9305 49.7C76.7305 49.7 76.1305 50.4333 76.1305 51.9V61.15C76.1305 62.6167 76.7305 63.35 77.9305 63.35Z" fill="white"/>
<path d="M33.57 94.3C32.05 94.3 30.82 93.84 29.88 92.92C28.94 91.98 28.47 90.75 28.47 89.23V77.77C28.47 76.25 28.94 75.03 29.88 74.11C30.82 73.17 32.05 72.7 33.57 72.7C35.09 72.7 36.32 73.17 37.26 74.11C38.2 75.03 38.67 76.25 38.67 77.77V89.23C38.67 90.75 38.2 91.98 37.26 92.92C36.32 93.84 35.09 94.3 33.57 94.3ZM33.57 91.3C34.17 91.3 34.64 91.12 34.98 90.76C35.32 90.4 35.49 89.89 35.49 89.23V77.77C35.49 77.11 35.32 76.6 34.98 76.24C34.64 75.88 34.17 75.7 33.57 75.7C32.97 75.7 32.5 75.88 32.16 76.24C31.82 76.6 31.65 77.11 31.65 77.77V89.23C31.65 89.89 31.82 90.4 32.16 90.76C32.5 91.12 32.97 91.3 33.57 91.3ZM41.8943 73H50.7743V76H45.0743V82.15H49.5743V85.15H45.0743V94H41.8943V73ZM53.2322 73H62.1122V76H56.4122V82.15H60.9122V85.15H56.4122V94H53.2322V73ZM67.8101 73V79.63L67.2701 88.6H65.1701L64.6301 79.63V73H67.8101ZM67.8101 90.82V94H64.6301V90.82H67.8101Z" fill="white"/>
</svg>
