<svg fill="none" xmlns="http://www.w3.org/2000/svg" viewBox="0 0 45 46" fit="" height="100%" width="100%" preserveAspectRatio="xMidYMid meet" focusable="false"><path fill-rule="evenodd" clip-rule="evenodd" d="M43.09 15.627c-1.098-1.768-2.967-2.668-4.959-2.893.58-2.713-1.407-5.528-3.922-6.59l-.07-.039a5.924 5.924 0 00-4.347-.163 16.51 16.51 0 00-.595.179 7.833 7.833 0 00-5.017-4.183 7.813 7.813 0 00-6.436 1.081 7.105 7.105 0 00-2.32 2.978l-.314-.086a5.92 5.92 0 00-4.278.19l-.089.05a5.834 5.834 0 00-.982.52 6.533 6.533 0 00-2.886 4.265c-.11.591-.11 1.199 0 1.79-2.084.233-4.05 1.218-5.101 3.133a6.34 6.34 0 00-.178 5.719 4.648 4.648 0 001.845 2.03 4.06 4.06 0 001.199.454c.555.084 1.117.127 1.678.128H37.822c.696 0 2.468 0 3.04-.26 3.276-1.19 3.93-5.578 2.228-8.303zm-12.265-6.16a.657.657 0 00-.87.228.64.64 0 00.228.868c1.481.632 2.181 2.404 1.992 3.931a.643.643 0 00.638.64.654.654 0 00.634-.64 5.351 5.351 0 00-.99-3.694 3.982 3.982 0 00-1.632-1.334zM8.891 8.364c0 .072.017.144.033.215l.017.072a3.415 3.415 0 01-.05-.287zm7.833 9.662a5.807 5.807 0 004.617 4.151v-.015a5.793 5.793 0 005.252-1.665 5.824 5.824 0 001.497-5.313 2.996 2.996 0 01-2.224 1.864 3.62 3.62 0 01-.746 1.629 3.541 3.541 0 01-3.903 1.077 3.597 3.597 0 01-2.32-3.244v-.167a3.564 3.564 0 012.827-3.377 3.63 3.63 0 01.774-.062 2.996 2.996 0 012.12-1.795 5.791 5.791 0 00-6.13.956 5.824 5.824 0 00-1.764 5.96zm8.574-5.727a1.764 1.764 0 011.633 1.09 1.77 1.77 0 01-.382 1.928 1.76 1.76 0 01-1.924.383 1.768 1.768 0 01-1.087-1.637 1.777 1.777 0 011.76-1.764zm16.609 9.351a4.15 4.15 0 00.773-1.783h-.02c.059-.325.083-.655.074-.985a4.664 4.664 0 00-.1-.996 4.742 4.742 0 00-.863-1.939c-1.002-1.357-2.762-1.961-4.483-1.996a.642.642 0 01-.526-.958c.222-.595.27-1.242.14-1.865a5.236 5.236 0 00-.929-2.07c-.18.63-.52 1.204-.986 1.663a5.384 5.384 0 01-1.884 1.21 5.182 5.182 0 00-.623-1.12l.109-.047a3.963 3.963 0 001.524-.927 2.969 2.969 0 00.812-1.818v-.035l-.013-.009c-.13-.09-.25-.172-.374-.25a5.021 5.021 0 00-.7-.365.897.897 0 01-.155-.05 3.084 3.084 0 00-.29-.117 5.932 5.932 0 00-3.388 0 4.426 4.426 0 00-1.771 1.249c-.546.632-1.633-.082-1.083-.721.295-.339.625-.644.986-.911a6.229 6.229 0 00-1.934-2.509 6.81 6.81 0 00-5.415-1.248 5.774 5.774 0 00-4.231 3.547c.477.313.91.69 1.284 1.12.549.64-.538 1.354-1.083.722a4.451 4.451 0 00-1.884-1.291 5.812 5.812 0 00-2.437-.17 5.092 5.092 0 00-2.32.996v.03c.057.686.351 1.33.831 1.823.432.42.953.736 1.524.926a.54.54 0 01.109.047 3.966 3.966 0 011.632-1.338.653.653 0 01.87.229.648.648 0 01-.228.872c-1.501.628-2.201 2.404-2.035 3.924a.64.64 0 01-.634.636.658.658 0 01-.634-.636 5.253 5.253 0 01.386-2.578 5.413 5.413 0 01-1.91-1.19 3.793 3.793 0 01-.971-1.637c0-.036-.013-.073-.025-.111l-.018-.055c0 .041.014.08.027.12a.88.88 0 01.016.046 4.653 4.653 0 00-.27.388 5.024 5.024 0 00-.686 1.88 3.213 3.213 0 00.178 1.644.645.645 0 01-.58.958 6.178 6.178 0 00-3.48 1.03 4.67 4.67 0 00-1.68 2.269 5.078 5.078 0 00-.262 1.221 5.482 5.482 0 000 .667c.009.054.008.11.008.163 0 .06-.001.116.01.166.024.097.024.19.024.19.06.412.173.814.333 1.198l.108.229.026.047c.037.069.072.135.113.201.085.149.182.29.29.423.3.377.682.68 1.118.884a6.555 6.555 0 011.238-3.959 4.285 4.285 0 014.254-1.74c.82.155.46 1.384-.34 1.225-1.21-.237-2.386.473-3.036 1.47a5.561 5.561 0 00-.836 3.29h6.657a5.155 5.155 0 01-1.393-2.372c-.235-.791 1.006-1.117 1.227-.341a5.47 5.47 0 001.934 2.713h5.57a7.081 7.081 0 01-4.15-7.14 7.074 7.074 0 015.43-6.218 7.056 7.056 0 017.61 3.177 7.092 7.092 0 01-.579 8.243 6.66 6.66 0 01-2.553 1.938h5.922a5.643 5.643 0 001.656-2.713c.209-.791 1.365-.47 1.222.337a4.881 4.881 0 01-1.2 2.377h5.017c.177 0 .351.003.522.006.334.006.657.011.971-.007a5.565 5.565 0 00-.835-3.29c-.65-1.001-1.826-1.71-3.04-1.47-.797.155-1.137-1.07-.337-1.23a4.285 4.285 0 014.255 1.741 6.562 6.562 0 011.238 3.955v.027c.193-.103.38-.22.557-.349.138-.12.267-.249.386-.388l.144-.159.089-.116z" fill="#070707"></path></svg>