<svg xmlns="http://www.w3.org/2000/svg" width="20.392" height="20.421" viewBox="0 0 20.392 20.421">
  <g id="phone-call" transform="translate(-0.344 0)">
    <g id="Group_70" data-name="Group 70" transform="translate(0.344 0)">
      <path id="Path_10" data-name="Path 10" d="M16.469,38.875a2.009,2.009,0,0,0-1.457-.668,2.077,2.077,0,0,0-1.474.664l-1.362,1.358c-.112-.06-.224-.116-.332-.172-.155-.078-.3-.151-.427-.228A14.8,14.8,0,0,1,7.87,36.6a8.733,8.733,0,0,1-1.164-1.836c.353-.323.681-.659,1-.983.121-.121.241-.246.362-.366a1.977,1.977,0,0,0,0-2.983L6.892,29.251c-.134-.134-.272-.272-.4-.409-.259-.267-.53-.543-.81-.8a2.04,2.04,0,0,0-1.444-.634,2.111,2.111,0,0,0-1.465.634l-.009.009L1.3,29.527a3.153,3.153,0,0,0-.935,2,7.556,7.556,0,0,0,.552,3.2,18.558,18.558,0,0,0,3.3,5.5,20.283,20.283,0,0,0,6.754,5.288,10.523,10.523,0,0,0,3.793,1.121c.091,0,.185.009.272.009a3.248,3.248,0,0,0,2.487-1.069c0-.009.013-.013.017-.022a9.8,9.8,0,0,1,.754-.78c.185-.177.375-.362.56-.556a2.15,2.15,0,0,0,.651-1.491,2.071,2.071,0,0,0-.664-1.478Zm1.543,4.538s0,0,0,0c-.168.181-.34.345-.526.526a11.334,11.334,0,0,0-.832.862,2.078,2.078,0,0,1-1.621.685c-.065,0-.134,0-.2,0a9.348,9.348,0,0,1-3.362-1.009,19.146,19.146,0,0,1-6.362-4.982,17.5,17.5,0,0,1-3.1-5.168,6.154,6.154,0,0,1-.483-2.7,1.979,1.979,0,0,1,.595-1.28l1.47-1.47a.98.98,0,0,1,.655-.306.922.922,0,0,1,.629.3l.013.013c.263.246.513.5.776.771.134.138.272.276.409.418L7.25,31.251a.823.823,0,0,1,0,1.336c-.125.125-.246.25-.371.371-.362.371-.707.715-1.082,1.052-.009.009-.017.013-.022.022a.879.879,0,0,0-.224.978l.013.039a9.447,9.447,0,0,0,1.392,2.271l0,0a15.819,15.819,0,0,0,3.827,3.483,5.884,5.884,0,0,0,.53.289c.155.078.3.151.427.228.017.009.034.022.052.03a.934.934,0,0,0,.427.108.922.922,0,0,0,.655-.3l1.474-1.474A.975.975,0,0,1,15,39.366a.878.878,0,0,1,.621.315l.009.009,2.375,2.375A.852.852,0,0,1,18.012,43.414Z" transform="translate(-0.344 -26.225)"/>
      <path id="Path_11" data-name="Path 11" d="M245.423,87.08A5.547,5.547,0,0,1,249.94,91.6a.578.578,0,0,0,.573.483.769.769,0,0,0,.1-.009.582.582,0,0,0,.478-.672,6.707,6.707,0,0,0-5.465-5.465.585.585,0,0,0-.672.474A.576.576,0,0,0,245.423,87.08Z" transform="translate(-234.401 -82.222)"/>
      <path id="Path_12" data-name="Path 12" d="M258.451,9.008a11.044,11.044,0,0,0-9-9,.581.581,0,1,0-.19,1.146A9.865,9.865,0,0,1,257.3,9.2a.578.578,0,0,0,.573.483.769.769,0,0,0,.1-.009A.571.571,0,0,0,258.451,9.008Z" transform="translate(-238.068 0)"/>
    </g>
  </g>
</svg>
