<svg xmlns="http://www.w3.org/2000/svg" xmlns:xlink="http://www.w3.org/1999/xlink" width="102" height="102" viewBox="0 0 102 102">
  <defs>
    <clipPath id="clip-path">
      <rect id="Rectangle_51" data-name="Rectangle 51" width="102" height="102" transform="translate(1034 1524)"/>
    </clipPath>
  </defs>
  <g id="Mask_Group_6" data-name="Mask Group 6" transform="translate(-1034 -1524)" clip-path="url(#clip-path)">
    <path id="Shape" d="M51,0A51,51,0,1,0,87.062,14.938,51,51,0,0,0,51,0ZM3.4,51A47.464,47.464,0,0,1,16.184,18.581L21.607,24c-4.794,8.5,3.315,20.4,11.05,26.2A21.811,21.811,0,0,0,30.7,57.8,13.6,13.6,0,0,0,32.9,82.467c4.369,1.615,5.593,0,7.548,1.564a19.482,19.482,0,0,0,24.582,0,3.2,3.2,0,0,1,2.193-.731,13.6,13.6,0,0,0,10.013-3.655l6.188,6.171A47.6,47.6,0,0,1,3.4,51Zm67.728-3.808a20.231,20.231,0,0,0-1.819-2.4,1.7,1.7,0,0,0-2.55,2.244,18.547,18.547,0,0,1,4.658,11.9,1.7,1.7,0,0,0,.986,1.5,10.2,10.2,0,0,1,4.556,14.127L26.18,23.8c6.97-5.763,17,6.494,20.145,14.926a3.4,3.4,0,0,0,3.706,2.193,19.193,19.193,0,0,1,5.406,0,3.4,3.4,0,0,0,3.706-2.193c3.043-8.16,12.784-20.4,19.754-15.3a7.089,7.089,0,0,1,2.856,4.828c1.02,6.7-5.253,14.824-10.625,18.938ZM74.8,77.214A10.047,10.047,0,0,1,67.422,79.9a6.562,6.562,0,0,0-4.556,1.53,16.048,16.048,0,0,1-20.264,0A6.8,6.8,0,0,0,38.42,79.9,10.03,10.03,0,0,1,34,79.305a10.2,10.2,0,0,1-.986-18.87,1.7,1.7,0,0,0,.969-1.5,18.564,18.564,0,0,1,4.658-11.9,1.7,1.7,0,0,0-2.55-2.244,22.1,22.1,0,0,0-1.8,2.4c-5.78-4.454-12.886-13.821-10.2-20.638Zm11,6.205-6.392-6.392A13.6,13.6,0,0,0,74.8,57.8a22.1,22.1,0,0,0-1.938-7.633c6.375-4.76,13.6-14.161,12.291-22.406a10.455,10.455,0,0,0-4.216-7.072c-9.35-6.8-20.876,6.154-24.99,16.8a23.664,23.664,0,0,0-6.392,0,36.142,36.142,0,0,0-4.964-8.976c-10.013-13.5-17.884-9.384-20.06-7.8-.255.187-.476.425-.731.646l-5.219-5.168A47.6,47.6,0,0,1,85.816,83.419Z" transform="translate(1034 1524)"/>
  </g>
</svg>
