<svg xmlns="http://www.w3.org/2000/svg" xmlns:xlink="http://www.w3.org/1999/xlink" width="102" height="102" viewBox="0 0 102 102">
  <defs>
    <clipPath id="clip-path">
      <rect id="Rectangle_50" data-name="Rectangle 50" width="102" height="102" transform="translate(784 1524)"/>
    </clipPath>
  </defs>
  <g id="Mask_Group_5" data-name="Mask Group 5" transform="translate(-784 -1524)" clip-path="url(#clip-path)">
    <g id="Page-1" transform="translate(784 1524)">
      <g id="_022---Perfume" data-name="022---Perfume">
        <path id="Shape" d="M21.634,40.812A32.1,32.1,0,0,0,6.8,68a1.7,1.7,0,1,0,3.4,0A28.713,28.713,0,0,1,23.46,43.678a1.7,1.7,0,1,0-1.831-2.866Z"/>
        <path id="Shape-2" data-name="Shape" d="M39.1,6.8a5.1,5.1,0,1,0,5.1,5.1A5.1,5.1,0,0,0,39.1,6.8Zm0,6.8a1.7,1.7,0,1,1,1.7-1.7A1.7,1.7,0,0,1,39.1,13.6Z"/>
        <path id="Shape-3" data-name="Shape" d="M26.35,73.1a5.95,5.95,0,1,0,5.95,5.95A5.95,5.95,0,0,0,26.35,73.1Zm0,8.5a2.55,2.55,0,1,1,2.55-2.55A2.55,2.55,0,0,1,26.35,81.6Z"/>
        <circle id="Oval" cx="1.7" cy="1.7" r="1.7" transform="translate(13.6 83.299)"/>
        <circle id="Oval-2" data-name="Oval" cx="1.7" cy="1.7" r="1.7" transform="translate(20.4 88.399)"/>
        <path id="Shape-4" data-name="Shape" d="M84.149,13.6c-7.22,0-13.44,3.5-16.248,8.5h-13A7.556,7.556,0,0,0,51,20.487V6.8A6.8,6.8,0,0,0,44.2,0H34a6.8,6.8,0,0,0-6.8,6.8V20.487a7.572,7.572,0,0,0-5.1,12.306A39.1,39.1,0,0,0,17.365,100.5a8.748,8.748,0,0,0,4.819,1.5H56.032a8.143,8.143,0,0,0,4.52-1.3A39.168,39.168,0,0,0,78.181,68.1c0-.034.019-.063.019-.1s-.015-.053-.017-.082c0-1.11-.031-2.225-.124-3.344A39.387,39.387,0,0,0,58.391,34H67.9c2.808,5,9.029,8.5,16.248,8.5,9.843,0,17.85-6.482,17.85-14.45S93.992,13.6,84.149,13.6ZM30.6,6.8A3.4,3.4,0,0,1,34,3.4H44.2a3.4,3.4,0,0,1,3.4,3.4V20.4h-17Zm-2.55,17h22.1a4.236,4.236,0,0,1,2.941,1.19l.029.024a4.233,4.233,0,0,1,0,6.066l-.029.024a4.236,4.236,0,0,1-2.941,1.19H28.05a4.25,4.25,0,1,1,0-8.5ZM58.68,97.862a4.838,4.838,0,0,1-2.649.738H22.185a5.321,5.321,0,0,1-2.929-.92A35.7,35.7,0,0,1,4.845,78.009,21.733,21.733,0,0,0,15.13,73.655,17.874,17.874,0,0,1,26.639,69.7a17.86,17.86,0,0,1,11.5,3.952A21.226,21.226,0,0,0,51.578,78.2,21.185,21.185,0,0,0,65,73.654a18.119,18.119,0,0,1,9.756-3.879A35.776,35.776,0,0,1,58.68,97.862Zm15.988-33c.044.51.056,1.011.078,1.518A21.4,21.4,0,0,0,63.08,70.845a17.85,17.85,0,0,1-11.5,3.954,17.872,17.872,0,0,1-11.521-3.958A21.214,21.214,0,0,0,26.639,66.3a21.216,21.216,0,0,0-13.43,4.546,18.317,18.317,0,0,1-9.18,3.825A35.676,35.676,0,0,1,25.2,35.135a7.594,7.594,0,0,0,2.854.564h22.1a7.577,7.577,0,0,0,2.864-.568A35.948,35.948,0,0,1,74.669,64.861ZM57.33,30.6a7.164,7.164,0,0,0,0-5.1H66.6a11.14,11.14,0,0,0,0,5.1Zm26.819,8.5c-6.317,0-11.687-3.121-13.646-7.449l-.015-.031a8.473,8.473,0,0,1,0-7.14l.015-.031C72.462,20.121,77.832,17,84.149,17c7.968,0,14.45,4.957,14.45,11.05S92.117,39.1,84.149,39.1Z"/>
        <path id="Shape-5" data-name="Shape" d="M84.149,20.4c-6.61,0-11.05,3.956-11.05,7.65a1.7,1.7,0,0,0,3.4,0c0-1.734,2.98-4.25,7.65-4.25a1.7,1.7,0,1,0,0-3.4Z"/>
        <path id="Shape-6" data-name="Shape" d="M12.078.94a1.7,1.7,0,0,0,.762,2.29l6.8,3.4a1.7,1.7,0,1,0,1.52-3.043l-6.8-3.4A1.7,1.7,0,0,0,12.078.94Z"/>
        <path id="Shape-7" data-name="Shape" d="M19.64,17.178l-6.8,3.4a1.7,1.7,0,0,0,1.52,3.043l6.8-3.4a1.7,1.7,0,1,0-1.52-3.043Z"/>
        <path id="Shape-8" data-name="Shape" d="M10.2,11.9a1.7,1.7,0,0,0,1.7,1.7h6.8a1.7,1.7,0,1,0,0-3.4H11.9A1.7,1.7,0,0,0,10.2,11.9Z"/>
        <path id="Shape-9" data-name="Shape" d="M64.6,85a1.7,1.7,0,0,0-2.38.34,28.929,28.929,0,0,1-6.71,6.46l-6.21-.01a1.7,1.7,0,0,0,0,3.4l6.729.01a1.7,1.7,0,0,0,.943-.286,32.3,32.3,0,0,0,7.968-7.534A1.7,1.7,0,0,0,64.6,85Z"/>
      </g>
    </g>
  </g>
</svg>
