<svg xmlns="http://www.w3.org/2000/svg" xmlns:xlink="http://www.w3.org/1999/xlink" width="105" height="105" viewBox="0 0 105 105">
  <defs>
    <clipPath id="clip-path">
      <path id="path2826" d="M0-682.665H105v105H0Z" transform="translate(0 682.665)"/>
    </clipPath>
  </defs>
  <g id="g2820" transform="translate(0 682.665)">
    <g id="g2822" transform="translate(0 -682.665)">
      <g id="g2824" clip-path="url(#clip-path)">
        <g id="g2830" transform="translate(41.263 17.177)">
          <path id="path2832" d="M-123.641-270.968v-19.007a8.513,8.513,0,0,0-4.409-7.459l-.61-.336a3.112,3.112,0,0,1-1.611-2.726v-18.022a1.7,1.7,0,0,0-1.7-1.7h-5.807a1.7,1.7,0,0,0-1.7,1.7V-300.5a3.112,3.112,0,0,1-1.612,2.726l-.61.336a8.513,8.513,0,0,0-4.409,7.459v37.968a2.432,2.432,0,0,0,2.432,2.432h17.609a2.432,2.432,0,0,0,2.432-2.432V-263.79" transform="translate(146.114 320.22)" fill="none" stroke="#000" stroke-linecap="round" stroke-linejoin="round" stroke-width="3"/>
        </g>
        <g id="g2834" transform="translate(47.894 24.341)">
          <path id="path2836" d="M0,0H9.212" fill="none" stroke="#000" stroke-linecap="round" stroke-linejoin="round" stroke-width="3"/>
        </g>
        <g id="g2838" transform="translate(41.263 52.12)">
          <path id="path2840" d="M0,0H22.474" fill="none" stroke="#000" stroke-linecap="round" stroke-linejoin="round" stroke-width="3"/>
        </g>
        <g id="g2842" transform="translate(41.263 79.762)">
          <path id="path2844" d="M-123.641,0h-22.474" transform="translate(146.114)" fill="none" stroke="#000" stroke-linecap="round" stroke-linejoin="round" stroke-width="3"/>
        </g>
        <g id="g2846" transform="translate(1.538 1.538)">
          <path id="path2848" d="M-116.729-111.528A42.615,42.615,0,0,1-86.984-123.6,42.807,42.807,0,0,1-44.226-80.838,42.807,42.807,0,0,1-86.984-38.079a42.807,42.807,0,0,1-42.759-42.759,42.532,42.532,0,0,1,8.264-25.24m34.5-25.722a50.962,50.962,0,0,0-50.962,50.962A50.962,50.962,0,0,0-86.984-29.876,50.962,50.962,0,0,0-36.023-80.838,50.962,50.962,0,0,0-86.984-131.8Z" transform="translate(137.946 131.8)" fill="none" stroke="#000" stroke-linecap="round" stroke-linejoin="round" stroke-width="3"/>
        </g>
        <g id="g2850" transform="translate(22.279 22.279)">
          <path id="path2852" d="M-332.525,0l-60.442,60.442" transform="translate(392.967)" fill="none" stroke="#000" stroke-linecap="round" stroke-linejoin="round" stroke-width="3"/>
        </g>
      </g>
    </g>
  </g>
</svg>
