<svg xmlns="http://www.w3.org/2000/svg" xmlns:xlink="http://www.w3.org/1999/xlink" width="102" height="102" viewBox="0 0 102 102">
  <defs>
    <clipPath id="clip-path">
      <rect id="Rectangle_49" data-name="Rectangle 49" width="102" height="102" transform="translate(534 1524)"/>
    </clipPath>
    <clipPath id="clip-path-2">
      <path id="path873" d="M0-102H102V0H0Z"/>
    </clipPath>
  </defs>
  <g id="Mask_Group_4" data-name="Mask Group 4" transform="translate(-534 -1524)" clip-path="url(#clip-path)">
    <g id="g867" transform="translate(534 1626)">
      <g id="g869">
        <g id="g871" clip-path="url(#clip-path-2)">
          <g id="g877" transform="translate(62.815 -76.73)">
            <path id="path879" d="M0,0H-23.63A3.475,3.475,0,0,1-27.1-3.475,3.475,3.475,0,0,1-23.63-6.949H0A3.475,3.475,0,0,1,3.475-3.475,3.475,3.475,0,0,1,0,0Z" fill="none" stroke="#000" stroke-linecap="round" stroke-linejoin="round" stroke-width="2.988"/>
          </g>
          <g id="g881" transform="translate(61.359 -43.031)">
            <path id="path883" d="M0,0H.006V-33.7h-20.73V14.345A10.365,10.365,0,0,0-10.369,24.71,10.365,10.365,0,0,0,.006,14.345V7.969H0" fill="none" stroke="#000" stroke-linecap="round" stroke-linejoin="round" stroke-width="2.988"/>
          </g>
          <g id="g885" transform="translate(61.365 -60.191)">
            <path id="path887" d="M0,0H-20.73" fill="none" stroke="#000" stroke-linecap="round" stroke-linejoin="round" stroke-width="2.988"/>
          </g>
          <g id="g889" transform="translate(54.059 -50.075)">
            <path id="path891" d="M0,0A1.5,1.5,0,0,0,0-2.988,1.5,1.5,0,0,0,0,0"/>
          </g>
          <g id="g893" transform="translate(46.922 -33.151)">
            <path id="path895" d="M0,0A1.5,1.5,0,0,0,0-2.988,1.5,1.5,0,0,0,0,0"/>
          </g>
          <g id="g897" transform="translate(54.059 -26.668)">
            <path id="path899" d="M0,0A1.5,1.5,0,0,0,0-2.988,1.5,1.5,0,0,0,0,0"/>
          </g>
          <g id="g901" transform="translate(39.804 -39.804)">
            <path id="path903" d="M0,0-23.8,23.8" fill="none" stroke="#000" stroke-linecap="round" stroke-linejoin="round" stroke-width="2.988"/>
          </g>
          <g id="g905" transform="translate(85.994 -85.994)">
            <path id="path907" d="M0,0-25.216,25.216" fill="none" stroke="#000" stroke-linecap="round" stroke-linejoin="round" stroke-width="2.988"/>
          </g>
          <g id="g909" transform="translate(6.653 -73.02)">
            <path id="path911" d="M0,0A49.554,49.554,0,1,0,4.042-6.731" fill="none" stroke="#000" stroke-linecap="round" stroke-linejoin="round" stroke-width="2.988"/>
          </g>
        </g>
      </g>
    </g>
  </g>
</svg>
