<svg id="stars-5" xmlns="http://www.w3.org/2000/svg" width="120" height="22.5" viewBox="0 0 120 22.5">
  <g id="Group_548" data-name="Group 548">
    <path id="Path_344" data-name="Path 344" d="M0,0H22.5V22.5H0ZM24.375,0h22.5V22.5h-22.5ZM48.75,0h22.5V22.5H48.75ZM73.125,0h22.5V22.5h-22.5ZM97.5,0H120V22.5H97.5Z" fill="#00b67a"/>
  </g>
  <path id="Path_345" data-name="Path 345" d="M22.275,27.567,25.7,26.7l1.43,4.406Zm7.875-5.7H24.127L22.275,16.2l-1.852,5.672H14.4l4.875,3.516-1.852,5.672L22.3,27.544l3-2.156Zm16.5,5.7,3.422-.867,1.43,4.406Zm7.875-5.7H48.5L46.65,16.2,44.8,21.872H38.775l4.875,3.516L41.8,31.059l4.875-3.516,3-2.156Zm16.5,5.7,3.422-.867,1.43,4.406Zm7.875-5.7H72.877L71.025,16.2l-1.852,5.672H63.15l4.875,3.516-1.852,5.672,4.875-3.516,3-2.156Zm16.5,5.7,3.422-.867,1.43,4.406Zm7.875-5.7H97.252L95.4,16.2l-1.852,5.672H87.525L92.4,25.388l-1.852,5.672,4.875-3.516,3-2.156Zm16.5,5.7L123.2,26.7l1.43,4.406Zm7.875-5.7h-6.023L119.775,16.2l-1.852,5.672H111.9l4.875,3.516-1.852,5.672,4.875-3.516,3-2.156Z" transform="translate(-11.025 -12.403)" fill="#fff"/>
</svg>
